<svg xmlns="http://www.w3.org/2000/svg" xmlns:xlink="http://www.w3.org/1999/xlink" width="14" height="14" viewBox="0 0 14 14">
  <defs>
    <clipPath id="clip-path">
      <rect id="長方形_85" data-name="長方形 85" width="14" height="14" transform="translate(252 10252)" fill="#fff" stroke="#707070" stroke-width="1"/>
    </clipPath>
  </defs>
  <g id="icon-twitter" transform="translate(-252 -10252)" clip-path="url(#clip-path)">
    <path id="tw" d="M792.219,10080.949a7.079,7.079,0,0,0,7.006-7.234c0-.1,0-.2-.008-.3a5.046,5.046,0,0,0,1.229-1.306,6.41,6.41,0,0,1-1.413.4,2.644,2.644,0,0,0,1.083-1.407,4.341,4.341,0,0,1-1.564.6,2.391,2.391,0,0,0-1.8-.8,2.519,2.519,0,0,0-2.462,2.563,2.918,2.918,0,0,0,.063.552,6.841,6.841,0,0,1-5.074-2.663,2.688,2.688,0,0,0-.334,1.307,2.585,2.585,0,0,0,1.1,2.11,2.8,2.8,0,0,1-1.115-.353v.051a2.584,2.584,0,0,0,1.975,2.512,2.775,2.775,0,0,1-.648.049,1.422,1.422,0,0,1-.463-.049,2.449,2.449,0,0,0,2.3,1.758,4.732,4.732,0,0,1-3.058,1.105,2.326,2.326,0,0,1-.587-.05,6.58,6.58,0,0,0,3.775,1.155" transform="translate(-535.446 183.098)" fill-rule="evenodd"/>
  </g>
</svg>
