<svg xmlns="http://www.w3.org/2000/svg" xmlns:xlink="http://www.w3.org/1999/xlink" width="121" height="265" viewBox="0 0 121 265"><defs><clipPath id="a"><rect width="121" height="265" transform="translate(-1332 11678)" fill="#fff" stroke="#707070" stroke-width="1"/></clipPath><clipPath id="b"><rect width="1280" height="800" transform="translate(0 1822)" fill="none"/></clipPath><clipPath id="c"><rect width="1155.172" height="1670.136" fill="none"/></clipPath></defs><g transform="translate(1332 -11678)" clip-path="url(#a)"><path d="M1314.5,10087.271c-20.214-11.582-39.92-24.125-58.573-37.279-17.345-12.232-34.178-25.273-50.031-38.763a633.967,633.967,0,0,1-76.193-76.661c-9.66-11.6-18.758-23.454-27.042-35.241-7.419-10.556-14.235-21.124-20.261-31.412-5.352-9.137-10.035-17.972-13.92-26.257a176.637,176.637,0,0,1-8.021-19.787l.951-.309c2.309,7.13,8.218,22.567,21.853,45.848,6.011,10.264,12.813,20.809,20.216,31.342,8.269,11.766,17.35,23.6,26.993,35.177a632.963,632.963,0,0,0,76.073,76.539c15.83,13.47,32.638,26.492,49.959,38.707,18.628,13.137,38.308,25.662,58.494,37.229Z" transform="translate(-2393 1856)" fill="#414141"/><rect width="1280" height="359" transform="translate(-2491 11678)" fill="none"/><g transform="translate(-1662 9236)" clip-path="url(#b)"><g transform="translate(491.993 988.501)" clip-path="url(#c)"><path d="M-2356.184,5607.887c13.772,16.284,25.322,26.42,34.106,33.26,304.873,225.867,209.192,400.681,193.858,514.634-15.412,114.525-74.572,307.517,168.554,427.359s185.212,365.342,353.3,490.922" transform="matrix(0.921, 0.391, -0.391, 0.921, 4927.841, -4212.698)" fill="none" stroke="#414141" stroke-width="1"/></g></g><rect width="1280" height="800" transform="translate(-1662 11058)" fill="none"/></g></svg>