<svg xmlns="http://www.w3.org/2000/svg" xmlns:xlink="http://www.w3.org/1999/xlink" width="167.729" height="11" viewBox="0 0 167.729 11">
  <defs>
    <clipPath id="clip-path">
      <rect id="長方形_80" data-name="長方形 80" width="167.729" height="11" fill="none"/>
    </clipPath>
  </defs>
  <g id="logo" transform="translate(0.372 -0.368)">
    <g id="グループ_79" data-name="グループ 79" transform="translate(-0.372 0.368)" clip-path="url(#clip-path)">
      <path id="パス_149" data-name="パス 149" d="M6.1,7.045a2.938,2.938,0,0,0,.635-.587,3.076,3.076,0,0,0,.473-.831,3.015,3.015,0,0,0,.188-1.1,3.48,3.48,0,0,0-.22-1.247,2.79,2.79,0,0,0-.66-1.008,3.161,3.161,0,0,0-1.1-.684A4.242,4.242,0,0,0,3.9,1.333H0V11.6H2.218V7.819H3.406L5.378,11.6H7.935L5.425,7.428A4.57,4.57,0,0,0,6.1,7.045m-1.564-1.3A2.64,2.64,0,0,1,3.1,6.108H2.218V3.028H3.342a1.918,1.918,0,0,1,1.311.4A1.439,1.439,0,0,1,5.1,4.56a1.3,1.3,0,0,1-.563,1.189" transform="translate(0 -0.966)"/>
      <rect id="長方形_75" data-name="長方形 75" width="2.233" height="10.267" transform="translate(11.437 0.366)"/>
      <path id="パス_150" data-name="パス 150" d="M73.883,4.11A4.143,4.143,0,0,0,72.8,2.57a4.59,4.59,0,0,0-1.679-.929,7.148,7.148,0,0,0-2.168-.31H65.367V11.6h3.148a7.824,7.824,0,0,0,2.225-.31,4.986,4.986,0,0,0,1.833-.969,4.669,4.669,0,0,0,1.239-1.664,5.767,5.767,0,0,0,.454-2.4,5.545,5.545,0,0,0-.383-2.143M71.9,6.253A4.515,4.515,0,0,1,71.609,8a2.918,2.918,0,0,1-.783,1.109,2.863,2.863,0,0,1-1.133.586,5.151,5.151,0,0,1-1.329.171H67.6V3.06h1.059a3.322,3.322,0,0,1,2.363.823,3.089,3.089,0,0,1,.88,2.37" transform="translate(-47.411 -0.966)"/>
      <path id="パス_151" data-name="パス 151" d="M111.625,7.119h4.026V5.407h-4.026V3.061h4.449V1.333h-6.682V11.6h6.731V9.873h-4.5Z" transform="translate(-79.343 -0.967)"/>
      <rect id="長方形_76" data-name="長方形 76" width="0.389" height="11" transform="translate(45.346)"/>
      <path id="パス_152" data-name="パス 152" d="M200.933,13.267a1.269,1.269,0,0,0-.358-.27,1.588,1.588,0,0,0-.443-.148,1.757,1.757,0,0,0,.371-.143,1.158,1.158,0,0,0,.308-.232,1.079,1.079,0,0,0,.291-.763,1.194,1.194,0,0,0-.455-1.007,2.046,2.046,0,0,0-1.273-.35h-1.695v5.312h1.644a2.646,2.646,0,0,0,.784-.11,1.916,1.916,0,0,0,.611-.308,1.421,1.421,0,0,0,.4-.472,1.282,1.282,0,0,0,.143-.6,1.409,1.409,0,0,0-.089-.514,1.222,1.222,0,0,0-.24-.392m-2.353-2.205h.657a1.194,1.194,0,0,1,.683.173.613.613,0,0,1,.253.544.761.761,0,0,1-.08.367.665.665,0,0,1-.211.236.811.811,0,0,1-.312.122,2.09,2.09,0,0,1-.383.034h-.607Zm1.657,3.436a.725.725,0,0,1-.24.266,1.055,1.055,0,0,1-.354.148,1.928,1.928,0,0,1-.43.046h-.632v-1.72h.531a2.437,2.437,0,0,1,.455.042,1.18,1.18,0,0,1,.388.144.783.783,0,0,1,.27.266.748.748,0,0,1,.1.4.853.853,0,0,1-.089.409" transform="translate(-143.378 -7.51)"/>
      <rect id="長方形_77" data-name="長方形 77" width="0.902" height="5.312" transform="translate(59.764 2.844)"/>
      <path id="パス_153" data-name="パス 153" d="M231.881,10.746a2.2,2.2,0,0,0-.8-.523,2.96,2.96,0,0,0-2.028,0,2.3,2.3,0,0,0-.814.531,2.434,2.434,0,0,0-.54.86,3.272,3.272,0,0,0-.194,1.168,3.394,3.394,0,0,0,.19,1.185,2.412,2.412,0,0,0,.527.856,2.192,2.192,0,0,0,.8.523,2.96,2.96,0,0,0,2.028,0,2.3,2.3,0,0,0,.814-.532,2.433,2.433,0,0,0,.539-.86,3.276,3.276,0,0,0,.194-1.168,3.393,3.393,0,0,0-.19-1.18,2.407,2.407,0,0,0-.527-.86m-.375,2.939a1.912,1.912,0,0,1-.329.636,1.277,1.277,0,0,1-.493.375,1.558,1.558,0,0,1-.616.122,1.587,1.587,0,0,1-.62-.122,1.333,1.333,0,0,1-.506-.375,1.868,1.868,0,0,1-.341-.636,2.866,2.866,0,0,1-.127-.9,2.961,2.961,0,0,1,.122-.9,1.907,1.907,0,0,1,.329-.637,1.279,1.279,0,0,1,.493-.376,1.557,1.557,0,0,1,.616-.122,1.635,1.635,0,0,1,.62.118,1.315,1.315,0,0,1,.506.367,1.829,1.829,0,0,1,.341.632,2.937,2.937,0,0,1,.126.915,2.973,2.973,0,0,1-.122.9" transform="translate(-165.011 -7.287)"/>
      <path id="パス_154" data-name="パス 154" d="M250.149,11.1h1.577v4.57h.9V11.1h1.6v-.742h-4.081Z" transform="translate(-181.435 -7.51)"/>
      <path id="パス_155" data-name="パス 155" d="M273.456,10.746a2.2,2.2,0,0,0-.8-.523,2.96,2.96,0,0,0-2.028,0,2.3,2.3,0,0,0-.814.531,2.438,2.438,0,0,0-.539.86,3.274,3.274,0,0,0-.194,1.168,3.394,3.394,0,0,0,.19,1.185,2.413,2.413,0,0,0,.527.856,2.195,2.195,0,0,0,.8.523,2.96,2.96,0,0,0,2.028,0,2.3,2.3,0,0,0,.814-.532,2.431,2.431,0,0,0,.539-.86,3.275,3.275,0,0,0,.194-1.168,3.4,3.4,0,0,0-.19-1.18,2.409,2.409,0,0,0-.527-.86m-.375,2.939a1.912,1.912,0,0,1-.329.636,1.278,1.278,0,0,1-.493.375,1.557,1.557,0,0,1-.616.122,1.587,1.587,0,0,1-.62-.122,1.335,1.335,0,0,1-.506-.375,1.87,1.87,0,0,1-.341-.636,2.866,2.866,0,0,1-.127-.9,2.961,2.961,0,0,1,.122-.9,1.907,1.907,0,0,1,.329-.637,1.279,1.279,0,0,1,.493-.376,1.557,1.557,0,0,1,.616-.122,1.635,1.635,0,0,1,.62.118,1.316,1.316,0,0,1,.506.367,1.83,1.83,0,0,1,.341.632,2.937,2.937,0,0,1,.126.915,2.973,2.973,0,0,1-.122.9" transform="translate(-195.166 -7.287)"/>
      <path id="パス_156" data-name="パス 156" d="M297.338,10.78a1.747,1.747,0,0,0-.6-.316,2.613,2.613,0,0,0-.78-.109h-1.737v5.312h.9V13.651h.734a2.985,2.985,0,0,0,.8-.1,1.845,1.845,0,0,0,.636-.308,1.428,1.428,0,0,0,.422-.523,1.708,1.708,0,0,0,.151-.746,1.618,1.618,0,0,0-.139-.687,1.439,1.439,0,0,0-.388-.506m-.51,1.678a.756.756,0,0,1-.278.287,1.217,1.217,0,0,1-.417.148,3.037,3.037,0,0,1-.527.042h-.481V11.062h.666a1.765,1.765,0,0,1,.43.051,1.113,1.113,0,0,1,.362.16.781.781,0,0,1,.253.287.918.918,0,0,1,.093.43.952.952,0,0,1-.1.468" transform="translate(-213.402 -7.51)"/>
      <path id="パス_157" data-name="パス 157" d="M314.216,13.262h2.167v-.717h-2.167V11.079H316.6v-.725h-3.288v5.312h3.314v-.725h-2.412Z" transform="translate(-227.25 -7.51)"/>
      <path id="パス_158" data-name="パス 158" d="M342.409,11.235a1.421,1.421,0,0,1,.565-.354,2.134,2.134,0,0,1,.687-.109,2.178,2.178,0,0,1,.611.076,4.619,4.619,0,0,1,.544.2l.21-.683a2.609,2.609,0,0,0-.6-.232,3.562,3.562,0,0,0-.873-.088,2.96,2.96,0,0,0-1.067.186,2.32,2.32,0,0,0-.835.54,2.447,2.447,0,0,0-.544.864,3.213,3.213,0,0,0-.194,1.151,3.149,3.149,0,0,0,.2,1.168,2.5,2.5,0,0,0,.552.86,2.317,2.317,0,0,0,.827.532,2.86,2.86,0,0,0,1.024.181,4.013,4.013,0,0,0,.868-.08,3.055,3.055,0,0,0,.624-.207l-.194-.7a2.867,2.867,0,0,1-.519.19,2.784,2.784,0,0,1-.687.071,1.957,1.957,0,0,1-.67-.114,1.417,1.417,0,0,1-.549-.354,1.741,1.741,0,0,1-.371-.624,2.715,2.715,0,0,1-.139-.924,2.64,2.64,0,0,1,.143-.923,1.76,1.76,0,0,1,.384-.628" transform="translate(-247.267 -7.287)"/>
      <path id="パス_159" data-name="パス 159" d="M364.653,13.259a1.7,1.7,0,0,0,.341-.312,1.534,1.534,0,0,0,.249-.426,1.5,1.5,0,0,0,.1-.557,1.829,1.829,0,0,0-.11-.641,1.377,1.377,0,0,0-.329-.51,1.539,1.539,0,0,0-.544-.338,2.115,2.115,0,0,0-.746-.122h-1.83v5.312h.877V13.626h.784l1.172,2.041h1.02l-1.366-2.2a1.9,1.9,0,0,0,.384-.207m-.586-.561a1.1,1.1,0,0,1-.371.16,1.985,1.985,0,0,1-.464.051h-.574V11.062h.7a1.157,1.157,0,0,1,.776.232.878.878,0,0,1,.27.7.906.906,0,0,1-.089.418.754.754,0,0,1-.249.282" transform="translate(-262.404 -7.51)"/>
      <path id="パス_160" data-name="パス 160" d="M382.368,13.262h2.167v-.717h-2.167V11.079h2.387v-.725h-3.289v5.312h3.314v-.725h-2.412Z" transform="translate(-276.68 -7.51)"/>
      <path id="パス_161" data-name="パス 161" d="M400.513,10.353l-2.091,5.312h.936l.523-1.391h2.083l.531,1.391h.945l-2.066-5.312Zm1.206,3.23h-1.61l.321-.852q.143-.371.253-.687t.236-.687h.017q.058.2.114.371c.036.113.074.222.114.329s.079.215.118.325.082.223.127.342Z" transform="translate(-288.979 -7.509)"/>
      <path id="パス_162" data-name="パス 162" d="M418.222,11.1H419.8v4.57h.9V11.1h1.6v-.742h-4.081Z" transform="translate(-303.34 -7.51)"/>
      <rect id="長方形_78" data-name="長方形 78" width="0.902" height="5.312" transform="translate(120.491 2.844)"/>
      <path id="パス_163" data-name="パス 163" d="M450.291,13.321q-.05.127-.109.3t-.118.354c-.04.124-.079.246-.118.367s-.073.235-.1.341h-.016c-.034-.107-.072-.223-.114-.35s-.086-.253-.13-.38l-.131-.367-.114-.321-1.028-2.909h-.953l2.007,5.312h.919l2.024-5.312h-.936Z" transform="translate(-324.471 -7.509)"/>
      <path id="パス_164" data-name="パス 164" d="M471.678,13.262h2.167v-.717h-2.167V11.079h2.386v-.725h-3.289v5.312h3.314v-.725h-2.412Z" transform="translate(-341.458 -7.51)"/>
      <path id="パス_165" data-name="パス 165" d="M500.675,12.458l-.523-.168a1.88,1.88,0,0,1-.658-.321.606.606,0,0,1-.2-.481.634.634,0,0,1,.261-.539,1.18,1.18,0,0,1,.717-.194,2.316,2.316,0,0,1,.6.08,3.9,3.9,0,0,1,.653.249l.211-.717a3.389,3.389,0,0,0-1.518-.321,2,2,0,0,0-1.375.422,1.429,1.429,0,0,0-.472,1.122,1.207,1.207,0,0,0,.333.906,2.356,2.356,0,0,0,.915.518l.5.16a1.9,1.9,0,0,1,.771.4.682.682,0,0,1,.2.48.648.648,0,0,1-.287.574,1.3,1.3,0,0,1-.742.194,2.91,2.91,0,0,1-.725-.089,3.713,3.713,0,0,1-.708-.265l-.211.708a3.367,3.367,0,0,0,.831.274,4.628,4.628,0,0,0,.856.08,2.556,2.556,0,0,0,.784-.114,1.837,1.837,0,0,0,.6-.316,1.387,1.387,0,0,0,.383-.489,1.464,1.464,0,0,0,.135-.633,1.392,1.392,0,0,0-.321-.906,2.083,2.083,0,0,0-1.012-.611" transform="translate(-361.474 -7.287)"/>
      <path id="パス_166" data-name="パス 166" d="M516.155,11.1h1.577v4.57h.9V11.1h1.6v-.742h-4.081Z" transform="translate(-374.372 -7.51)"/>
      <path id="パス_167" data-name="パス 167" d="M539.854,13.634a1.638,1.638,0,0,1-.291,1.016,1.092,1.092,0,0,1-.931.384,1.163,1.163,0,0,1-.945-.354,1.788,1.788,0,0,1-.3-1.147V10.354h-.9v3.2a2.184,2.184,0,0,0,.569,1.674,2.227,2.227,0,0,0,1.573.527,2.189,2.189,0,0,0,1.572-.527,2.162,2.162,0,0,0,.552-1.632V10.354h-.9Z" transform="translate(-389.12 -7.51)"/>
      <path id="パス_168" data-name="パス 168" d="M563.125,10.99a2.345,2.345,0,0,0-.844-.477,3.42,3.42,0,0,0-1.071-.16H559.44v5.312h1.5a4.113,4.113,0,0,0,1.126-.152,2.517,2.517,0,0,0,.936-.485,2.344,2.344,0,0,0,.637-.86,3.113,3.113,0,0,0,.236-1.278,2.869,2.869,0,0,0-.2-1.109,2.154,2.154,0,0,0-.552-.792m-.392,2.913a1.574,1.574,0,0,1-1.113.949,3.2,3.2,0,0,1-.755.088h-.523V11.078h.717a1.893,1.893,0,0,1,1.345.468,1.749,1.749,0,0,1,.5,1.345,2.548,2.548,0,0,1-.173,1.012" transform="translate(-405.767 -7.509)"/>
      <rect id="長方形_79" data-name="長方形 79" width="0.902" height="5.312" transform="translate(159.906 2.844)"/>
      <path id="パス_169" data-name="パス 169" d="M596.971,11.606a2.408,2.408,0,0,0-.527-.86,2.2,2.2,0,0,0-.8-.523,2.96,2.96,0,0,0-2.028,0,2.294,2.294,0,0,0-.814.531,2.441,2.441,0,0,0-.54.86,3.279,3.279,0,0,0-.194,1.168,3.4,3.4,0,0,0,.19,1.185,2.406,2.406,0,0,0,.527.856,2.192,2.192,0,0,0,.8.523,2.961,2.961,0,0,0,2.028,0,2.3,2.3,0,0,0,.814-.532,2.434,2.434,0,0,0,.54-.86,3.274,3.274,0,0,0,.194-1.168,3.4,3.4,0,0,0-.189-1.18m-.9,2.078a1.911,1.911,0,0,1-.329.636,1.275,1.275,0,0,1-.493.375,1.557,1.557,0,0,1-.615.122,1.584,1.584,0,0,1-.62-.122,1.333,1.333,0,0,1-.506-.375,1.871,1.871,0,0,1-.342-.636,2.864,2.864,0,0,1-.126-.9,2.953,2.953,0,0,1,.122-.9,1.9,1.9,0,0,1,.329-.637,1.28,1.28,0,0,1,.493-.376,1.558,1.558,0,0,1,.616-.122,1.633,1.633,0,0,1,.62.118,1.317,1.317,0,0,1,.506.367,1.83,1.83,0,0,1,.341.632,2.94,2.94,0,0,1,.126.915,2.973,2.973,0,0,1-.122.9" transform="translate(-429.432 -7.287)"/>
    </g>
  </g>
</svg>
