<svg xmlns="http://www.w3.org/2000/svg" width="410.037" height="32.949" viewBox="0 0 410.037 32.949">
  <g id="title" transform="translate(-52.546 -7.397)">
    <path id="パス_112" data-name="パス 112" d="M52.546,7.973h7.091L64.352,27.3h.082L70.61,7.973h6.048L82.791,27.81h.082L87.839,7.973H94.43L85.792,38.112H80l-6.51-20.859H73.4L66.9,38.112H61.308Z" transform="translate(0 1.467)"/>
    <path id="パス_113" data-name="パス 113" d="M66.364,11.461a3.59,3.59,0,0,1,1.064-2.618,3.573,3.573,0,0,1,5.13,0,3.6,3.6,0,0,1,1.064,2.618,3.6,3.6,0,0,1-1.064,2.618,3.573,3.573,0,0,1-5.13,0A3.59,3.59,0,0,1,66.364,11.461Zm.5,6.513h6.258V38.662H66.864Z" transform="translate(35.2 0.917)"/>
    <path id="パス_114" data-name="パス 114" d="M70.6,11h6.009v2.81h.082a5.274,5.274,0,0,1,.837-1.192,6.011,6.011,0,0,1,1.291-1.064,7.329,7.329,0,0,1,1.71-.766,7.008,7.008,0,0,1,2.086-.3,8.466,8.466,0,0,1,3.838.745A5.626,5.626,0,0,1,88.724,13.3a8.46,8.46,0,0,1,1.107,3.108,24.028,24.028,0,0,1,.291,3.874V31.692H83.864V21.561q0-.894-.064-1.852a5.838,5.838,0,0,0-.376-1.767,3.034,3.034,0,0,0-.958-1.32,2.939,2.939,0,0,0-1.855-.511,3.8,3.8,0,0,0-1.962.447A3.04,3.04,0,0,0,77.5,17.751a5.02,5.02,0,0,0-.521,1.681,15.1,15.1,0,0,0-.124,1.958v10.3H70.6Z" transform="translate(45.984 7.887)"/>
    <path id="パス_115" data-name="パス 115" d="M93.856,20.147H88.351v6.9a13.809,13.809,0,0,0,.082,1.554,3.251,3.251,0,0,0,.376,1.213,1.924,1.924,0,0,0,.9.788,3.916,3.916,0,0,0,1.607.277,10.643,10.643,0,0,0,1.316-.106,2.2,2.2,0,0,0,1.227-.49V35.6a9.28,9.28,0,0,1-2.167.511,19.657,19.657,0,0,1-2.21.128,11.754,11.754,0,0,1-2.92-.341,6.6,6.6,0,0,1-2.338-1.086,5.073,5.073,0,0,1-1.564-1.937,6.729,6.729,0,0,1-.564-2.895V20.147H78.088V15.039h4.005V8.909h6.258v6.13h5.506Z" transform="translate(65.066 3.852)"/>
    <path id="パス_116" data-name="パス 116" d="M104.36,28.117a10.014,10.014,0,0,1-3.8,3.022A11.19,11.19,0,0,1,95.807,32.2a12.535,12.535,0,0,1-4.4-.766,10.527,10.527,0,0,1-3.59-2.192,10.312,10.312,0,0,1-2.4-3.427,11,11,0,0,1-.876-4.47,11.008,11.008,0,0,1,.876-4.47,10.312,10.312,0,0,1,2.4-3.427,10.527,10.527,0,0,1,3.59-2.192,12.535,12.535,0,0,1,4.4-.766,9.855,9.855,0,0,1,3.945.766,8.2,8.2,0,0,1,3,2.192,10.029,10.029,0,0,1,1.9,3.427,14.016,14.016,0,0,1,.667,4.47v2H90.8a5.053,5.053,0,0,0,1.628,2.916,4.542,4.542,0,0,0,3.086,1.086,4.63,4.63,0,0,0,2.607-.7,7.013,7.013,0,0,0,1.855-1.809Zm-5.3-9.11a3.751,3.751,0,0,0-1.046-2.767,3.662,3.662,0,0,0-2.792-1.149A4.5,4.5,0,0,0,92.033,16.3a3.827,3.827,0,0,0-.876,1.235,4.129,4.129,0,0,0-.355,1.469Z" transform="translate(81.513 7.887)"/>
    <path id="パス_117" data-name="パス 117" d="M92.293,11h6.261v3.32h.082a7.859,7.859,0,0,1,2.377-2.873,5.927,5.927,0,0,1,3.466-.958c.362,0,.72.018,1.082.043a5.248,5.248,0,0,1,1,.17v5.832a9.282,9.282,0,0,0-1.313-.319,8.326,8.326,0,0,0-1.355-.106,6.539,6.539,0,0,0-2.838.511,3.787,3.787,0,0,0-1.6,1.426,5.523,5.523,0,0,0-.734,2.192,22.047,22.047,0,0,0-.163,2.81v8.642H92.293Z" transform="translate(101.253 7.887)"/>
    <path id="パス_118" data-name="パス 118" d="M123.823,16.356a6.411,6.411,0,0,0-2.355-1.83,7.716,7.716,0,0,0-3.232-.639,8.007,8.007,0,0,0-3.4.724,8.119,8.119,0,0,0-2.71,2.022,9.473,9.473,0,0,0-1.795,3.086,12.008,12.008,0,0,0,0,7.769,9.736,9.736,0,0,0,1.774,3.065,8.071,8.071,0,0,0,2.65,2.022,7.531,7.531,0,0,0,3.274.724,7.238,7.238,0,0,0,3.547-.851,7.165,7.165,0,0,0,2.544-2.384l5.424,4.129a11.351,11.351,0,0,1-4.757,3.959,14.47,14.47,0,0,1-5.924,1.277,17.863,17.863,0,0,1-6.382-1.107,14.514,14.514,0,0,1-5.048-3.171,14.367,14.367,0,0,1-3.317-5,17.359,17.359,0,0,1-1.188-6.556,17.372,17.372,0,0,1,1.188-6.556,14.4,14.4,0,0,1,3.317-5,14.566,14.566,0,0,1,5.048-3.171,17.863,17.863,0,0,1,6.382-1.107,15.339,15.339,0,0,1,2.607.234,13.868,13.868,0,0,1,2.671.745,11.774,11.774,0,0,1,2.522,1.362,10.219,10.219,0,0,1,2.171,2.086Z" transform="translate(128.337 0.917)"/>
    <path id="パス_119" data-name="パス 119" d="M112.286,21.348a11.008,11.008,0,0,1,.876-4.47,10.21,10.21,0,0,1,2.4-3.427,10.546,10.546,0,0,1,3.586-2.192,13.03,13.03,0,0,1,8.8,0,10.58,10.58,0,0,1,3.586,2.192,10.261,10.261,0,0,1,2.4,3.427,11.008,11.008,0,0,1,.876,4.47,11,11,0,0,1-.876,4.47,10.261,10.261,0,0,1-2.4,3.427,10.58,10.58,0,0,1-3.586,2.192,13.03,13.03,0,0,1-8.8,0,10.546,10.546,0,0,1-3.586-2.192,10.21,10.21,0,0,1-2.4-3.427A11,11,0,0,1,112.286,21.348Zm6.258,0a5.417,5.417,0,0,0,1.313,3.789,5.43,5.43,0,0,0,7.382,0,5.4,5.4,0,0,0,1.316-3.789,5.4,5.4,0,0,0-1.316-3.789,5.43,5.43,0,0,0-7.382,0A5.417,5.417,0,0,0,118.544,21.348Z" transform="translate(152.183 7.887)"/>
    <path id="パス_120" data-name="パス 120" d="M120.753,7.4h6.258V39.579h-6.258Z" transform="translate(173.752 0)"/>
    <path id="パス_121" data-name="パス 121" d="M124.869,7.4h6.254V39.579h-6.254Z" transform="translate(184.238 0)"/>
    <path id="パス_122" data-name="パス 122" d="M148.6,28.117a10.068,10.068,0,0,1-3.8,3.022,11.2,11.2,0,0,1-4.757,1.064,12.555,12.555,0,0,1-4.4-.766,10.546,10.546,0,0,1-3.586-2.192,10.261,10.261,0,0,1-2.4-3.427,11,11,0,0,1-.876-4.47,11.008,11.008,0,0,1,.876-4.47,10.261,10.261,0,0,1,2.4-3.427,10.546,10.546,0,0,1,3.586-2.192,12.555,12.555,0,0,1,4.4-.766,9.825,9.825,0,0,1,3.941.766,8.216,8.216,0,0,1,3,2.192,10.029,10.029,0,0,1,1.9,3.427,14.017,14.017,0,0,1,.667,4.47v2H135.043a5.068,5.068,0,0,0,1.625,2.916,4.554,4.554,0,0,0,3.086,1.086,4.642,4.642,0,0,0,2.611-.7,7.067,7.067,0,0,0,1.855-1.809Zm-5.3-9.11a3.734,3.734,0,0,0-1.043-2.767,3.67,3.67,0,0,0-2.8-1.149,4.609,4.609,0,0,0-1.834.341,4.545,4.545,0,0,0-1.355.873,3.825,3.825,0,0,0-.876,1.235,4.129,4.129,0,0,0-.355,1.469Z" transform="translate(194.213 7.887)"/>
    <path id="パス_123" data-name="パス 123" d="M150.942,17.687a3.54,3.54,0,0,0-1.291-1.128,3.751,3.751,0,0,0-1.795-.447,4.722,4.722,0,0,0-3.689,1.447,5.4,5.4,0,0,0-1.316,3.789,5.4,5.4,0,0,0,1.316,3.789,4.722,4.722,0,0,0,3.689,1.447,3.325,3.325,0,0,0,1.795-.468,5.5,5.5,0,0,0,1.291-1.107l4.133,4.427a7.972,7.972,0,0,1-3.441,2.15,12.725,12.725,0,0,1-3.778.617,12.569,12.569,0,0,1-4.4-.766,10.546,10.546,0,0,1-3.586-2.192,10.26,10.26,0,0,1-2.4-3.427,11,11,0,0,1-.876-4.47,11.009,11.009,0,0,1,.876-4.47,10.26,10.26,0,0,1,2.4-3.427,10.546,10.546,0,0,1,3.586-2.192,12.569,12.569,0,0,1,4.4-.766,12.725,12.725,0,0,1,3.778.617,7.972,7.972,0,0,1,3.441,2.15Z" transform="translate(214.104 7.887)"/>
    <path id="パス_124" data-name="パス 124" d="M159.421,20.147h-5.506v6.9A13.809,13.809,0,0,0,154,28.6a3.19,3.19,0,0,0,.376,1.213,1.924,1.924,0,0,0,.9.788,3.893,3.893,0,0,0,1.607.277,10.6,10.6,0,0,0,1.313-.106,2.2,2.2,0,0,0,1.231-.49V35.6a9.352,9.352,0,0,1-2.171.511,19.657,19.657,0,0,1-2.21.128,11.794,11.794,0,0,1-2.919-.341,6.6,6.6,0,0,1-2.338-1.086,5.073,5.073,0,0,1-1.564-1.937,6.729,6.729,0,0,1-.564-2.895V20.147h-4.005V15.039h4.005V8.909h6.261v6.13h5.506Z" transform="translate(232.078 3.852)"/>
    <path id="パス_125" data-name="パス 125" d="M150.164,11.461a3.6,3.6,0,0,1,1.064-2.618,3.573,3.573,0,0,1,5.13,0,3.6,3.6,0,0,1,1.064,2.618,3.6,3.6,0,0,1-1.064,2.618,3.573,3.573,0,0,1-5.13,0A3.6,3.6,0,0,1,150.164,11.461Zm.5,6.513h6.258V38.662h-6.258Z" transform="translate(248.675 0.917)"/>
    <path id="パス_126" data-name="パス 126" d="M154.186,21.348a11.067,11.067,0,0,1,.876-4.47,10.312,10.312,0,0,1,2.4-3.427,10.58,10.58,0,0,1,3.586-2.192,13.03,13.03,0,0,1,8.8,0,10.546,10.546,0,0,1,3.586,2.192,10.261,10.261,0,0,1,2.4,3.427,11.009,11.009,0,0,1,.876,4.47,11,11,0,0,1-.876,4.47,10.261,10.261,0,0,1-2.4,3.427,10.546,10.546,0,0,1-3.586,2.192,13.03,13.03,0,0,1-8.8,0,10.58,10.58,0,0,1-3.586-2.192,10.312,10.312,0,0,1-2.4-3.427A11.055,11.055,0,0,1,154.186,21.348Zm6.258,0a5.417,5.417,0,0,0,1.313,3.789,5.435,5.435,0,0,0,7.386,0,5.417,5.417,0,0,0,1.313-3.789,5.417,5.417,0,0,0-1.313-3.789,5.435,5.435,0,0,0-7.386,0A5.417,5.417,0,0,0,160.444,21.348Z" transform="translate(258.921 7.887)"/>
    <path id="パス_127" data-name="パス 127" d="M162.629,11h6.006v2.81h.085a5.143,5.143,0,0,1,.834-1.192,6.122,6.122,0,0,1,1.295-1.064,7.331,7.331,0,0,1,1.71-.766,7.008,7.008,0,0,1,2.086-.3,8.476,8.476,0,0,1,3.838.745,5.626,5.626,0,0,1,2.274,2.065,8.524,8.524,0,0,1,1.107,3.108,24.435,24.435,0,0,1,.291,3.874V31.692H175.9V21.561c0-.6-.021-1.213-.06-1.852a5.949,5.949,0,0,0-.38-1.767,3.005,3.005,0,0,0-.958-1.32,2.937,2.937,0,0,0-1.859-.511,3.815,3.815,0,0,0-1.962.447,3.031,3.031,0,0,0-1.146,1.192,4.938,4.938,0,0,0-.518,1.681,14.5,14.5,0,0,0-.124,1.958v10.3h-6.261Z" transform="translate(280.428 7.887)"/>
  </g>
</svg>
