<svg xmlns="http://www.w3.org/2000/svg" width="14" height="14"><defs><clipPath id="a"><path data-name="長方形 85" transform="translate(252 10252)" fill="#fff" stroke="#707070" d="M0 0h14v14H0z"/></clipPath></defs><g transform="translate(-252 -10252)" clip-path="url(#a)"><path d="M256.773 10264.047a7.079 7.079 0 007.006-7.234c0-.1 0-.2-.008-.3a5.046 5.046 0 001.229-1.306 6.41 6.41 0 01-1.413.4 2.644 2.644 0 001.083-1.407 4.341 4.341 0 01-1.564.6 2.391 2.391 0 00-1.8-.8 2.519 2.519 0 00-2.462 2.563 2.918 2.918 0 00.063.552 6.841 6.841 0 01-5.074-2.663 2.688 2.688 0 00-.334 1.307 2.585 2.585 0 001.1 2.11 2.8 2.8 0 01-1.115-.353v.051a2.584 2.584 0 001.975 2.512 2.775 2.775 0 01-.648.049 1.422 1.422 0 01-.463-.049 2.449 2.449 0 002.3 1.758 4.732 4.732 0 01-3.058 1.105 2.326 2.326 0 01-.587-.05 6.58 6.58 0 003.775 1.155" fill-rule="evenodd"/></g></svg>