<svg xmlns="http://www.w3.org/2000/svg" width="14" height="14"><defs><clipPath id="a"><path data-name="長方形 87" transform="translate(301 10252)" fill="#fff" stroke="#707070" d="M0 0h14v14H0z"/></clipPath></defs><g transform="translate(-301 -10252)" clip-path="url(#a)"><path d="M310.3 10253h-4.6a3.68 3.68 0 00-3.7 3.678v4.644a3.727 3.727 0 003.7 3.738h4.6a3.728 3.728 0 003.7-3.739v-4.643a3.679 3.679 0 00-3.7-3.679zm2.547 7.9a2.974 2.974 0 01-2.988 2.954h-3.722a2.974 2.974 0 01-2.988-2.955v-3.738a2.988 2.988 0 012.988-3.016h3.722a2.987 2.987 0 012.988 3.016zm-4.688-5.065a3.2 3.2 0 103.16 3.2 3.194 3.194 0 00-3.16-3.2zm0 5.126a1.9 1.9 0 111.354-.567 1.908 1.908 0 01-1.352.566zm3.745-5.126a.8.8 0 11-.388-.733.8.8 0 01.388.733z" fill-rule="evenodd"/></g></svg>