<svg xmlns="http://www.w3.org/2000/svg" width="121" height="265"><defs><clipPath id="a"><path transform="translate(-1332 11678)" fill="#fff" stroke="#707070" d="M0 0h121v265H0z"/></clipPath><clipPath id="b"><path transform="translate(0 1822)" fill="none" d="M0 0h1280v800H0z"/></clipPath><clipPath id="c"><path fill="none" d="M0 0h1155.172v1670.136H0z"/></clipPath></defs><g transform="translate(1332 -11678)" clip-path="url(#a)"><path d="M-1078.5 11943.271c-20.214-11.582-39.92-24.125-58.573-37.279-17.345-12.232-34.178-25.273-50.031-38.763a633.967 633.967 0 01-76.193-76.661c-9.66-11.6-18.758-23.454-27.042-35.241-7.419-10.556-14.235-21.124-20.261-31.412-5.352-9.137-10.035-17.972-13.92-26.257a176.637 176.637 0 01-8.021-19.787l.951-.309c2.309 7.13 8.218 22.567 21.853 45.848 6.011 10.264 12.813 20.809 20.216 31.342 8.269 11.766 17.35 23.6 26.993 35.177a632.963 632.963 0 0076.073 76.539c15.83 13.47 32.638 26.492 49.959 38.707 18.628 13.137 38.308 25.662 58.494 37.229z" fill="#414141"/><path fill="none" d="M-2491 11678h1280v359h-1280z"/><g transform="translate(-1662 9236)" clip-path="url(#b)"><g transform="translate(491.993 988.501)" clip-path="url(#c)"><path d="M565.112 30.898c6.317 20.382 12.991 34.234 18.407 43.968 192.474 327.229 36 450.821-22.679 549.776-58.974 99.452-188.92 254.066-11.86 459.503s27.732 408.897 133.44 590.279" fill="none" stroke="#414141" stroke-width="1.001"/></g></g><path fill="none" d="M-1662 11058h1280v800h-1280z"/></g></svg>