<svg xmlns="http://www.w3.org/2000/svg" width="584" height="800"><defs><clipPath id="a"><path transform="translate(-3000 1669)" fill="none" stroke="#707070" d="M0 0h584v800H0z"/></clipPath><clipPath id="b"><path transform="translate(640 1803)" fill="none" stroke="#707070" d="M0 0h584v800H0z"/></clipPath><clipPath id="c"><path transform="translate(0 1822)" fill="none" d="M0 0h1280v800H0z"/></clipPath><clipPath id="d"><path fill="none" d="M0 0h1155.172v1670.136H0z"/></clipPath></defs><g transform="translate(3000 -1669)" clip-path="url(#a)"><g transform="translate(-3640 -134)" clip-path="url(#b)"><path d="M0 750h1280v9472H0z" fill="none"/><g transform="translate(0 -19)" clip-path="url(#c)"><g transform="translate(491.993 1788.501)" clip-path="url(#d)"><path d="M565.112 30.898c6.317 20.382 12.991 34.234 18.407 43.968 192.474 327.229 36 450.821-22.679 549.776-58.974 99.452-188.92 254.066-11.86 459.503s-70.345 412.107 35.36 593.49" fill="none" stroke="#d8d8d8" stroke-width="1.001"/></g></g><path fill="none" d="M0 1803h1280v800H0z"/></g></g></svg>