<svg xmlns="http://www.w3.org/2000/svg" width="167.729" height="11"><defs><clipPath id="a"><path data-name="長方形 80" fill="none" d="M0 0h167.729v11H0z"/></clipPath></defs><g data-name="グループ 79" clip-path="url(#a)"><path data-name="パス 149" d="M6.1 6.079a2.938 2.938 0 00.635-.587 3.076 3.076 0 00.473-.831 3.015 3.015 0 00.188-1.1 3.48 3.48 0 00-.22-1.247 2.79 2.79 0 00-.66-1.008 3.161 3.161 0 00-1.1-.684A4.242 4.242 0 003.9.367H0v10.267h2.218V6.853h1.188l1.972 3.781h2.557l-2.51-4.172a4.57 4.57 0 00.675-.383m-1.564-1.3a2.64 2.64 0 01-1.436.363h-.882v-3.08h1.124a1.918 1.918 0 011.311.4A1.439 1.439 0 015.1 3.594a1.3 1.3 0 01-.563 1.189"/><path data-name="長方形 75" d="M11.437.366h2.233v10.267h-2.233z"/><path data-name="パス 150" d="M26.472 3.144a4.143 4.143 0 00-1.083-1.54A4.59 4.59 0 0023.71.675a7.148 7.148 0 00-2.168-.31h-3.586v10.269h3.148a7.824 7.824 0 002.225-.31 4.986 4.986 0 001.833-.969 4.669 4.669 0 001.239-1.664 5.767 5.767 0 00.454-2.4 5.545 5.545 0 00-.383-2.143m-1.983 2.139a4.515 4.515 0 01-.291 1.747 2.918 2.918 0 01-.783 1.109 2.863 2.863 0 01-1.133.586 5.151 5.151 0 01-1.329.171h-.764V2.094h1.059a3.322 3.322 0 012.363.823 3.089 3.089 0 01.88 2.37"/><path data-name="パス 151" d="M32.282 6.152h4.026V4.44h-4.026V2.094h4.449V.366h-6.682v10.267h6.731V8.906h-4.5z"/><path data-name="長方形 76" d="M45.346 0h.389v11h-.389z"/><path data-name="パス 152" d="M57.555 5.757a1.269 1.269 0 00-.358-.27 1.588 1.588 0 00-.443-.148 1.757 1.757 0 00.371-.143 1.158 1.158 0 00.308-.232 1.079 1.079 0 00.291-.763 1.194 1.194 0 00-.455-1.007 2.046 2.046 0 00-1.273-.35h-1.695v5.312h1.644a2.646 2.646 0 00.784-.11 1.916 1.916 0 00.611-.308 1.421 1.421 0 00.4-.472 1.282 1.282 0 00.143-.6 1.409 1.409 0 00-.089-.514 1.222 1.222 0 00-.24-.392m-2.353-2.205h.657a1.194 1.194 0 01.683.173.613.613 0 01.253.544.761.761 0 01-.08.367.665.665 0 01-.211.236.811.811 0 01-.312.122 2.09 2.09 0 01-.383.034h-.607zm1.657 3.436a.725.725 0 01-.24.266 1.055 1.055 0 01-.354.148 1.928 1.928 0 01-.43.046h-.632v-1.72h.531a2.437 2.437 0 01.455.042 1.18 1.18 0 01.388.144.783.783 0 01.27.266.748.748 0 01.1.4.853.853 0 01-.089.409"/><path data-name="長方形 77" d="M59.764 2.844h.902v5.312h-.902z"/><path data-name="パス 153" d="M66.87 3.459a2.2 2.2 0 00-.8-.523 2.96 2.96 0 00-2.028 0 2.3 2.3 0 00-.814.531 2.434 2.434 0 00-.54.86 3.272 3.272 0 00-.194 1.168 3.394 3.394 0 00.19 1.185 2.412 2.412 0 00.527.856 2.192 2.192 0 00.8.523 2.96 2.96 0 002.028 0 2.3 2.3 0 00.814-.532 2.433 2.433 0 00.539-.86 3.276 3.276 0 00.194-1.168 3.393 3.393 0 00-.19-1.18 2.407 2.407 0 00-.527-.86m-.375 2.939a1.912 1.912 0 01-.329.636 1.277 1.277 0 01-.493.375 1.558 1.558 0 01-.616.122 1.587 1.587 0 01-.62-.122 1.333 1.333 0 01-.506-.375 1.868 1.868 0 01-.341-.636 2.866 2.866 0 01-.127-.9 2.961 2.961 0 01.122-.9 1.907 1.907 0 01.329-.637 1.279 1.279 0 01.493-.376 1.557 1.557 0 01.616-.122 1.635 1.635 0 01.62.118 1.315 1.315 0 01.506.367 1.829 1.829 0 01.341.632 2.937 2.937 0 01.126.915 2.973 2.973 0 01-.122.9"/><path data-name="パス 154" d="M68.714 3.59h1.577v4.57h.9V3.59h1.6v-.742H68.71z"/><path data-name="パス 155" d="M78.29 3.459a2.2 2.2 0 00-.8-.523 2.96 2.96 0 00-2.028 0 2.3 2.3 0 00-.814.531 2.438 2.438 0 00-.539.86 3.274 3.274 0 00-.194 1.168 3.394 3.394 0 00.19 1.185 2.413 2.413 0 00.527.856 2.195 2.195 0 00.8.523 2.96 2.96 0 002.028 0 2.3 2.3 0 00.814-.532 2.431 2.431 0 00.539-.86 3.275 3.275 0 00.194-1.168 3.4 3.4 0 00-.19-1.18 2.409 2.409 0 00-.527-.86m-.375 2.939a1.912 1.912 0 01-.329.636 1.278 1.278 0 01-.493.375 1.557 1.557 0 01-.616.122 1.587 1.587 0 01-.62-.122 1.335 1.335 0 01-.506-.375 1.87 1.87 0 01-.341-.636 2.866 2.866 0 01-.127-.9 2.961 2.961 0 01.122-.9 1.907 1.907 0 01.329-.637 1.279 1.279 0 01.493-.376 1.557 1.557 0 01.616-.122 1.635 1.635 0 01.62.118 1.316 1.316 0 01.506.367 1.83 1.83 0 01.341.632 2.937 2.937 0 01.126.915 2.973 2.973 0 01-.122.9"/><path data-name="パス 156" d="M83.936 3.27a1.747 1.747 0 00-.6-.316 2.613 2.613 0 00-.78-.109h-1.737v5.312h.9V6.141h.734a2.985 2.985 0 00.8-.1 1.845 1.845 0 00.636-.308 1.428 1.428 0 00.422-.523 1.708 1.708 0 00.151-.746 1.618 1.618 0 00-.139-.687 1.439 1.439 0 00-.388-.506m-.51 1.678a.756.756 0 01-.278.287 1.217 1.217 0 01-.417.148 3.037 3.037 0 01-.527.042h-.481V3.552h.666a1.765 1.765 0 01.43.051 1.113 1.113 0 01.362.16.781.781 0 01.253.287.918.918 0 01.093.43.952.952 0 01-.1.468"/><path data-name="パス 157" d="M86.966 5.752h2.167v-.717h-2.167V3.569h2.384v-.725h-3.288v5.312h3.314v-.725h-2.412z"/><path data-name="パス 158" d="M95.142 3.948a1.421 1.421 0 01.565-.354 2.134 2.134 0 01.687-.109 2.178 2.178 0 01.611.076 4.619 4.619 0 01.544.2l.21-.683a2.609 2.609 0 00-.6-.232 3.562 3.562 0 00-.873-.088 2.96 2.96 0 00-1.067.186 2.32 2.32 0 00-.835.54 2.447 2.447 0 00-.544.864 3.213 3.213 0 00-.194 1.151 3.149 3.149 0 00.2 1.168 2.5 2.5 0 00.552.86 2.317 2.317 0 00.827.532 2.86 2.86 0 001.024.181 4.013 4.013 0 00.868-.08 3.055 3.055 0 00.624-.207l-.194-.7a2.867 2.867 0 01-.519.19 2.784 2.784 0 01-.687.071 1.957 1.957 0 01-.67-.114 1.417 1.417 0 01-.549-.354 1.741 1.741 0 01-.371-.624 2.715 2.715 0 01-.139-.924 2.64 2.64 0 01.143-.923 1.76 1.76 0 01.384-.628"/><path data-name="パス 159" d="M102.249 5.749a1.7 1.7 0 00.341-.312 1.534 1.534 0 00.249-.426 1.5 1.5 0 00.1-.557 1.829 1.829 0 00-.11-.641 1.377 1.377 0 00-.329-.51 1.539 1.539 0 00-.544-.338 2.115 2.115 0 00-.746-.122h-1.83v5.312h.877V6.116h.784l1.172 2.041h1.02l-1.366-2.2a1.9 1.9 0 00.384-.207m-.586-.561a1.1 1.1 0 01-.371.16 1.985 1.985 0 01-.464.051h-.574V3.552h.7a1.157 1.157 0 01.776.232.878.878 0 01.27.7.906.906 0 01-.089.418.754.754 0 01-.249.282"/><path data-name="パス 160" d="M105.688 5.752h2.167v-.717h-2.167V3.569h2.387v-.725h-3.289v5.312h3.314v-.725h-2.412z"/><path data-name="パス 161" d="M111.534 2.844l-2.091 5.312h.936l.523-1.391h2.083l.531 1.391h.945l-2.066-5.312zm1.206 3.23h-1.61l.321-.852q.143-.371.253-.687t.236-.687h.017q.058.2.114.371c.036.113.074.222.114.329s.079.215.118.325.082.223.127.342z"/><path data-name="パス 162" d="M114.882 3.59h1.578v4.57h.9V3.59h1.6v-.742h-4.081z"/><path data-name="長方形 78" d="M120.491 2.844h.902v5.312h-.902z"/><path data-name="パス 163" d="M125.82 5.812q-.05.127-.109.3t-.118.354l-.118.367a5.764 5.764 0 00-.1.341h-.016l-.114-.35c-.042-.127-.086-.253-.13-.38l-.131-.367-.114-.321-1.028-2.909h-.953l2.007 5.312h.919l2.024-5.312h-.936z"/><path data-name="パス 164" d="M130.22 5.752h2.167v-.717h-2.167V3.569h2.386v-.725h-3.289v5.312h3.314v-.725h-2.412z"/><path data-name="パス 165" d="M139.201 5.171l-.523-.168a1.88 1.88 0 01-.658-.321.606.606 0 01-.2-.481.634.634 0 01.261-.539 1.18 1.18 0 01.717-.194 2.316 2.316 0 01.6.08 3.9 3.9 0 01.653.249l.211-.717a3.389 3.389 0 00-1.518-.321 2 2 0 00-1.375.422 1.429 1.429 0 00-.472 1.122 1.207 1.207 0 00.333.906 2.356 2.356 0 00.915.518l.5.16a1.9 1.9 0 01.771.4.682.682 0 01.2.48.648.648 0 01-.287.574 1.3 1.3 0 01-.742.194 2.91 2.91 0 01-.725-.089 3.713 3.713 0 01-.708-.265l-.211.708a3.367 3.367 0 00.831.274 4.628 4.628 0 00.856.08 2.556 2.556 0 00.784-.114 1.837 1.837 0 00.6-.316 1.387 1.387 0 00.383-.489 1.464 1.464 0 00.135-.633 1.392 1.392 0 00-.321-.906 2.083 2.083 0 00-1.012-.611"/><path data-name="パス 166" d="M141.783 3.59h1.577v4.57h.9V3.59h1.6v-.742h-4.081z"/><path data-name="パス 167" d="M150.734 6.124a1.638 1.638 0 01-.291 1.016 1.092 1.092 0 01-.931.384 1.163 1.163 0 01-.945-.354 1.788 1.788 0 01-.3-1.147V2.844h-.9v3.2a2.184 2.184 0 00.569 1.674 2.227 2.227 0 001.573.527 2.189 2.189 0 001.572-.527 2.162 2.162 0 00.552-1.632V2.844h-.9z"/><path data-name="パス 168" d="M157.358 3.481a2.345 2.345 0 00-.844-.477 3.42 3.42 0 00-1.071-.16h-1.77v5.312h1.5a4.113 4.113 0 001.126-.152 2.517 2.517 0 00.936-.485 2.344 2.344 0 00.637-.86 3.113 3.113 0 00.236-1.278 2.869 2.869 0 00-.2-1.109 2.154 2.154 0 00-.552-.792m-.392 2.913a1.574 1.574 0 01-1.113.949 3.2 3.2 0 01-.755.088h-.523V3.569h.717a1.893 1.893 0 011.345.468 1.749 1.749 0 01.5 1.345 2.548 2.548 0 01-.173 1.012"/><path data-name="長方形 79" d="M159.906 2.844h.902v5.312h-.902z"/><path data-name="パス 169" d="M167.539 4.319a2.408 2.408 0 00-.527-.86 2.2 2.2 0 00-.8-.523 2.96 2.96 0 00-2.028 0 2.294 2.294 0 00-.814.531 2.441 2.441 0 00-.54.86 3.279 3.279 0 00-.194 1.168 3.4 3.4 0 00.19 1.185 2.406 2.406 0 00.527.856 2.192 2.192 0 00.8.523 2.961 2.961 0 002.028 0 2.3 2.3 0 00.814-.532 2.434 2.434 0 00.54-.86 3.274 3.274 0 00.194-1.168 3.4 3.4 0 00-.189-1.18m-.9 2.078a1.911 1.911 0 01-.329.636 1.275 1.275 0 01-.493.375 1.557 1.557 0 01-.615.122 1.584 1.584 0 01-.62-.122 1.333 1.333 0 01-.506-.375 1.871 1.871 0 01-.342-.636 2.864 2.864 0 01-.126-.9 2.953 2.953 0 01.122-.9 1.9 1.9 0 01.329-.637 1.28 1.28 0 01.493-.376 1.558 1.558 0 01.616-.122 1.633 1.633 0 01.62.118 1.317 1.317 0 01.506.367 1.83 1.83 0 01.341.632 2.94 2.94 0 01.126.915 2.973 2.973 0 01-.122.9"/></g></svg>