<svg xmlns="http://www.w3.org/2000/svg" width="410.037" height="32.949"><path data-name="パス 112" d="M0 2.043h7.091l4.715 19.327h.082l6.176-19.327h6.048l6.133 19.837h.082l4.966-19.837h6.591l-8.638 30.139h-5.792l-6.51-20.859h-.09l-6.5 20.859H8.762z"/><path data-name="パス 113" d="M49.018 4.981a3.59 3.59 0 011.064-2.618 3.573 3.573 0 015.13 0 3.6 3.6 0 011.064 2.618 3.6 3.6 0 01-1.064 2.618 3.573 3.573 0 01-5.13 0 3.59 3.59 0 01-1.064-2.618zm.5 6.513h6.258v20.688h-6.258z"/><path data-name="パス 114" d="M64.038 11.49h6.009v2.81h.082a5.274 5.274 0 01.837-1.192 6.011 6.011 0 011.291-1.064 7.329 7.329 0 011.71-.766 7.008 7.008 0 012.086-.3 8.466 8.466 0 013.838.745 5.626 5.626 0 012.271 2.067 8.46 8.46 0 011.107 3.108 24.028 24.028 0 01.291 3.874v11.41h-6.258V22.051q0-.894-.064-1.852a5.838 5.838 0 00-.376-1.767 3.034 3.034 0 00-.958-1.32 2.939 2.939 0 00-1.855-.511 3.8 3.8 0 00-1.962.447 3.04 3.04 0 00-1.149 1.193 5.02 5.02 0 00-.521 1.681 15.1 15.1 0 00-.124 1.958v10.3h-6.255z"/><path data-name="パス 115" d="M106.376 16.602h-5.505v6.9a13.809 13.809 0 00.082 1.554 3.251 3.251 0 00.376 1.213 1.924 1.924 0 00.9.788 3.916 3.916 0 001.607.277 10.643 10.643 0 001.316-.106 2.2 2.2 0 001.227-.49v5.317a9.28 9.28 0 01-2.167.511 19.657 19.657 0 01-2.21.128 11.754 11.754 0 01-2.92-.341 6.6 6.6 0 01-2.338-1.086 5.073 5.073 0 01-1.564-1.937 6.729 6.729 0 01-.564-2.895v-9.833h-4.008v-5.108h4.005v-6.13h6.258v6.13h5.506z"/><path data-name="パス 116" d="M133.327 28.607a10.014 10.014 0 01-3.8 3.022 11.19 11.19 0 01-4.753 1.061 12.535 12.535 0 01-4.4-.766 10.527 10.527 0 01-3.59-2.192 10.312 10.312 0 01-2.4-3.427 11 11 0 01-.876-4.47 11.008 11.008 0 01.876-4.47 10.312 10.312 0 012.4-3.427 10.527 10.527 0 013.59-2.192 12.535 12.535 0 014.4-.766 9.855 9.855 0 013.945.766 8.2 8.2 0 013 2.192 10.029 10.029 0 011.9 3.427 14.016 14.016 0 01.667 4.47v2h-14.519a5.053 5.053 0 001.628 2.916 4.542 4.542 0 003.086 1.086 4.63 4.63 0 002.607-.7 7.013 7.013 0 001.855-1.809zm-5.3-9.11a3.751 3.751 0 00-1.046-2.767 3.662 3.662 0 00-2.792-1.149A4.5 4.5 0 00121 16.79a3.827 3.827 0 00-.876 1.235 4.129 4.129 0 00-.355 1.469z"/><path data-name="パス 117" d="M141 11.49h6.261v3.32h.082a7.859 7.859 0 012.377-2.873 5.927 5.927 0 013.466-.958c.362 0 .72.018 1.082.043a5.248 5.248 0 011 .17v5.832a9.282 9.282 0 00-1.313-.319 8.326 8.326 0 00-1.355-.106 6.539 6.539 0 00-2.838.511 3.787 3.787 0 00-1.6 1.426 5.523 5.523 0 00-.734 2.192 22.047 22.047 0 00-.163 2.81v8.642H141z"/><path data-name="パス 118" d="M199.614 9.876a6.411 6.411 0 00-2.355-1.83 7.716 7.716 0 00-3.232-.639 8.007 8.007 0 00-3.4.724 8.119 8.119 0 00-2.71 2.022 9.473 9.473 0 00-1.795 3.086 12.008 12.008 0 000 7.769 9.736 9.736 0 001.774 3.065 8.071 8.071 0 002.65 2.022 7.531 7.531 0 003.274.724 7.238 7.238 0 003.547-.851 7.165 7.165 0 002.544-2.384l5.424 4.129a11.351 11.351 0 01-4.757 3.959 14.47 14.47 0 01-5.924 1.277 17.863 17.863 0 01-6.382-1.107 14.514 14.514 0 01-5.048-3.171 14.367 14.367 0 01-3.317-5 17.359 17.359 0 01-1.188-6.556 17.372 17.372 0 011.188-6.556 14.4 14.4 0 013.317-5 14.566 14.566 0 015.048-3.171 17.863 17.863 0 016.382-1.107 15.339 15.339 0 012.607.234 13.868 13.868 0 012.671.745 11.774 11.774 0 012.522 1.362 10.219 10.219 0 012.171 2.086z"/><path data-name="パス 119" d="M211.923 21.838a11.008 11.008 0 01.876-4.47 10.21 10.21 0 012.4-3.427 10.546 10.546 0 013.586-2.192 13.03 13.03 0 018.8 0 10.58 10.58 0 013.586 2.192 10.261 10.261 0 012.4 3.427 11.008 11.008 0 01.876 4.47 11 11 0 01-.876 4.47 10.261 10.261 0 01-2.4 3.427 10.58 10.58 0 01-3.586 2.192 13.03 13.03 0 01-8.8 0 10.546 10.546 0 01-3.586-2.192 10.21 10.21 0 01-2.4-3.427 11 11 0 01-.876-4.47zm6.258 0a5.417 5.417 0 001.313 3.789 5.43 5.43 0 007.382 0 5.4 5.4 0 001.316-3.789 5.4 5.4 0 00-1.316-3.789 5.43 5.43 0 00-7.382 0 5.417 5.417 0 00-1.313 3.789z"/><path data-name="パス 120" d="M241.959.003h6.258v32.179h-6.258z"/><path data-name="パス 121" d="M256.561.003h6.254v32.179h-6.254z"/><path data-name="パス 122" d="M290.267 28.607a10.068 10.068 0 01-3.8 3.022 11.2 11.2 0 01-4.757 1.064 12.555 12.555 0 01-4.4-.766 10.546 10.546 0 01-3.586-2.192 10.261 10.261 0 01-2.4-3.427 11 11 0 01-.876-4.47 11.008 11.008 0 01.876-4.47 10.261 10.261 0 012.4-3.427 10.546 10.546 0 013.586-2.192 12.555 12.555 0 014.4-.766 9.825 9.825 0 013.941.766 8.216 8.216 0 013 2.192 10.029 10.029 0 011.9 3.427 14.017 14.017 0 01.667 4.47v2H276.71a5.068 5.068 0 001.625 2.916 4.554 4.554 0 003.086 1.086 4.642 4.642 0 002.611-.7 7.067 7.067 0 001.855-1.809zm-5.3-9.11a3.734 3.734 0 00-1.043-2.767 3.67 3.67 0 00-2.8-1.149 4.609 4.609 0 00-1.834.341 4.545 4.545 0 00-1.355.873 3.825 3.825 0 00-.876 1.235 4.129 4.129 0 00-.355 1.469z"/><path data-name="パス 123" d="M312.5 18.177a3.54 3.54 0 00-1.291-1.128 3.751 3.751 0 00-1.795-.447 4.722 4.722 0 00-3.689 1.447 5.4 5.4 0 00-1.316 3.789 5.4 5.4 0 001.316 3.789 4.722 4.722 0 003.689 1.447 3.325 3.325 0 001.795-.468 5.5 5.5 0 001.291-1.107l4.133 4.427a7.972 7.972 0 01-3.441 2.15 12.725 12.725 0 01-3.778.617 12.569 12.569 0 01-4.4-.766 10.546 10.546 0 01-3.586-2.192 10.26 10.26 0 01-2.4-3.427 11 11 0 01-.876-4.47 11.009 11.009 0 01.876-4.47 10.26 10.26 0 012.4-3.427 10.546 10.546 0 013.586-2.192 12.569 12.569 0 014.4-.766 12.725 12.725 0 013.778.617 7.972 7.972 0 013.441 2.15z"/><path data-name="パス 124" d="M338.953 16.602h-5.506v6.9a13.809 13.809 0 00.085 1.553 3.19 3.19 0 00.376 1.213 1.924 1.924 0 00.9.788 3.893 3.893 0 001.607.277 10.6 10.6 0 001.313-.106 2.2 2.2 0 001.231-.49v5.318a9.352 9.352 0 01-2.171.511 19.657 19.657 0 01-2.21.128 11.794 11.794 0 01-2.919-.341 6.6 6.6 0 01-2.338-1.086 5.073 5.073 0 01-1.564-1.937 6.729 6.729 0 01-.564-2.895v-9.833h-4.005v-5.108h4.005v-6.13h6.261v6.13h5.506z"/><path data-name="パス 125" d="M346.293 4.981a3.6 3.6 0 011.064-2.618 3.573 3.573 0 015.13 0 3.6 3.6 0 011.064 2.618 3.6 3.6 0 01-1.064 2.618 3.573 3.573 0 01-5.13 0 3.6 3.6 0 01-1.064-2.618zm.5 6.513h6.258v20.688h-6.258z"/><path data-name="パス 126" d="M360.561 21.838a11.067 11.067 0 01.876-4.47 10.312 10.312 0 012.4-3.427 10.58 10.58 0 013.586-2.192 13.03 13.03 0 018.8 0 10.546 10.546 0 013.586 2.192 10.261 10.261 0 012.4 3.427 11.009 11.009 0 01.876 4.47 11 11 0 01-.876 4.47 10.261 10.261 0 01-2.4 3.427 10.546 10.546 0 01-3.586 2.192 13.03 13.03 0 01-8.8 0 10.58 10.58 0 01-3.586-2.192 10.312 10.312 0 01-2.4-3.427 11.055 11.055 0 01-.876-4.47zm6.258 0a5.417 5.417 0 001.313 3.789 5.435 5.435 0 007.386 0 5.417 5.417 0 001.313-3.789 5.417 5.417 0 00-1.313-3.789 5.435 5.435 0 00-7.386 0 5.417 5.417 0 00-1.313 3.789z"/><path data-name="パス 127" d="M390.511 11.49h6.006v2.81h.085a5.143 5.143 0 01.834-1.192 6.122 6.122 0 011.295-1.064 7.331 7.331 0 011.71-.766 7.008 7.008 0 012.086-.3 8.476 8.476 0 013.838.745 5.626 5.626 0 012.274 2.065 8.524 8.524 0 011.107 3.108 24.435 24.435 0 01.291 3.874v11.412h-6.255V22.051c0-.6-.021-1.213-.06-1.852a5.949 5.949 0 00-.38-1.767 3.005 3.005 0 00-.958-1.32 2.937 2.937 0 00-1.859-.511 3.815 3.815 0 00-1.962.447 3.031 3.031 0 00-1.146 1.192 4.938 4.938 0 00-.518 1.681 14.5 14.5 0 00-.124 1.958v10.3h-6.261z"/></svg>